<svg xmlns="http://www.w3.org/2000/svg" width="37.45" height="37.45" viewBox="0 0 37.45 37.45">
  <path id="facebook-square-brands" d="M33.438,32H4.013A4.013,4.013,0,0,0,0,36.013V65.438A4.013,4.013,0,0,0,4.013,69.45H15.486V56.718H10.219V50.725h5.266V46.158c0-5.2,3.093-8.065,7.83-8.065a31.905,31.905,0,0,1,4.641.4v5.1H25.343c-2.576,0-3.379,1.6-3.379,3.238v3.891h5.75l-.92,5.993h-4.83V69.45H33.438a4.013,4.013,0,0,0,4.013-4.013V36.013A4.013,4.013,0,0,0,33.438,32Z" transform="translate(0 -32)" fill="#0b122d"/>
</svg>
