<svg xmlns="http://www.w3.org/2000/svg" width="37.45" height="37.45" viewBox="0 0 37.45 37.45">
  <path id="linkedin-brands" d="M34.775,32H2.667A2.687,2.687,0,0,0,0,34.7V66.75a2.687,2.687,0,0,0,2.667,2.7H34.775a2.694,2.694,0,0,0,2.675-2.7V34.7A2.694,2.694,0,0,0,34.775,32ZM11.319,64.1H5.768V46.228h5.559V64.1ZM8.543,43.787a3.218,3.218,0,1,1,3.218-3.218A3.22,3.22,0,0,1,8.543,43.787ZM32.125,64.1H26.575V55.406c0-2.073-.042-4.74-2.884-4.74-2.892,0-3.335,2.257-3.335,4.589V64.1H14.8V46.228H20.13v2.441H20.2a5.846,5.846,0,0,1,5.258-2.884c5.618,0,6.662,3.7,6.662,8.518Z" transform="translate(0 -32)" fill="#0b122d"/>
</svg>
