<svg xmlns="http://www.w3.org/2000/svg" width="20" height="19.34" viewBox="0 0 20 19.34"><g transform="translate(0 0)"><rect width="20" height="19" rx="4" transform="translate(0 0)" fill="#fff"/><path d="M16.654,14.6l-3.288-3.288a.791.791,0,0,0-.561-.231h-.538a6.856,6.856,0,1,0-1.187,1.187v.538a.791.791,0,0,0,.231.561L14.6,16.654a.788.788,0,0,0,1.118,0l.933-.933A.8.8,0,0,0,16.654,14.6ZM6.86,11.081A4.221,4.221,0,1,1,11.081,6.86,4.219,4.219,0,0,1,6.86,11.081Z" transform="translate(2.505 2.454)" fill="#0b122d"/></g></svg>