<svg xmlns="http://www.w3.org/2000/svg" width="39" height="38" viewBox="0 0 39 38">
  <g id="Group_26" data-name="Group 26" transform="translate(3997 -172)">
    <rect id="Rectangle_55" data-name="Rectangle 55" width="39" height="38" rx="4" transform="translate(-3997 172)" fill="#0b122d"/>
    <path id="tiktok-brands" d="M24.7,11.517a11.526,11.526,0,0,1-6.736-2.154V19.17a8.919,8.919,0,1,1-7.694-8.838v4.932a4.094,4.094,0,1,0,2.866,3.906V0h4.828a6.649,6.649,0,0,0,.1,1.216h0a6.7,6.7,0,0,0,2.958,4.4A6.663,6.663,0,0,0,24.7,6.723Z" transform="translate(-3989.679 176.665)" fill="#fff"/>
  </g>
</svg>
