<svg xmlns="http://www.w3.org/2000/svg" width="37.33" height="37.33" viewBox="0 0 37.33 37.33">
  <path id="youtube-square-brands" d="M15.565,46.174,23.5,50.682,15.565,55.19ZM37.33,36V65.331a4,4,0,0,1-4,4H4a4,4,0,0,1-4-4V36a4,4,0,0,1,4-4H33.331A4,4,0,0,1,37.33,36Zm-3.5,14.691a40.039,40.039,0,0,0-.633-7.349,3.8,3.8,0,0,0-2.683-2.7C28.156,40,18.665,40,18.665,40s-9.491,0-11.849.642a3.8,3.8,0,0,0-2.683,2.7A39.99,39.99,0,0,0,3.5,50.69a40.039,40.039,0,0,0,.633,7.349A3.749,3.749,0,0,0,6.816,60.7c2.358.633,11.849.633,11.849.633s9.491,0,11.849-.642A3.749,3.749,0,0,0,33.2,58.031,39.916,39.916,0,0,0,33.831,50.69Z" transform="translate(0 -32)" fill="#0b122d"/>
</svg>
